<svg xmlns="http://www.w3.org/2000/svg" width="220" height="34" viewBox="0 0 220.29 34.00" role="img" aria-label="Tamagooshi"><rect width="34.0" height="34.0" rx="2.5" fill="#f0f3f8"/><path transform="translate(10.84,23.47) scale(0.019000,-0.019000)" d="M561.5 690.75Q578.5 690.75 592.75 687.75Q607 684.75 616.25 671.125Q625.5 657.5 625.5 625.25Q625.5 594 616.125 580.0Q606.75 566 592.0 563.125Q577.25 560.25 560.25 560.25H399.25V64.75Q399.25 45.5 395.5 28.5Q391.75 11.5 376.25 1.0Q360.75 -9.5 323.5 -9.5Q287.75 -9.5 271.875 1.375Q256 12.25 252.75 29.375Q249.5 46.5 249.5 65.75V560.25H87Q70.75 560.25 56.0 563.5Q41.25 566.75 31.875 580.375Q22.5 594 22.5 626Q22.5 657.5 31.75 671.125Q41 684.75 56.125 687.75Q71.25 690.75 87.25 690.75Z" fill="#101216"/><g fill="#f0f3f8"><path transform="translate(47.00,25.98) scale(0.026000,-0.026000)" d="M561.5 690.75Q578.5 690.75 592.75 687.75Q607 684.75 616.25 671.125Q625.5 657.5 625.5 625.25Q625.5 594 616.125 580.0Q606.75 566 592.0 563.125Q577.25 560.25 560.25 560.25H399.25V64.75Q399.25 45.5 395.5 28.5Q391.75 11.5 376.25 1.0Q360.75 -9.5 323.5 -9.5Q287.75 -9.5 271.875 1.375Q256 12.25 252.75 29.375Q249.5 46.5 249.5 65.75V560.25H87Q70.75 560.25 56.0 563.5Q41.25 566.75 31.875 580.375Q22.5 594 22.5 626Q22.5 657.5 31.75 671.125Q41 684.75 56.125 687.75Q71.25 690.75 87.25 690.75Z"/><path transform="translate(64.37,25.98) scale(0.026000,-0.026000)" d="M687.75 96.5Q700.25 71.75 701.125 54.125Q702 36.5 690.375 23.125Q678.75 9.75 653 -3.5Q613 -22.5 591.125 -14.75Q569.25 -7 550.25 33.25L353.75 442.75L159 33Q139.25 -6 117.375 -13.625Q95.5 -21.25 56 -2.5Q30.25 9.75 18.375 23.375Q6.5 37 7.75 55.25Q9 73.5 21.75 99.25L284.75 645.75Q294.75 665.75 314.25 677.875Q333.75 690 354.75 690Q369.75 690 382.625 684.625Q395.5 679.25 406.25 669.25Q417 659.25 423.75 644.75ZM185.75 153.75 247.75 283.25H461L522.75 153.75Z"/><path transform="translate(83.32,25.98) scale(0.026000,-0.026000)" d="M116.5 -8.75Q81.25 -8.75 65.375 1.875Q49.5 12.5 45.625 30.0Q41.75 47.5 41.75 68V614.5Q41.75 633.5 45.625 650.375Q49.5 667.25 65.5 678.25Q81.5 689.25 118.5 689.25Q144.25 689.25 156.875 686.0Q169.5 682.75 175.75 677.5Q182 672.25 188.5 664.75L413.75 361.25H399.25L624.75 665Q633.25 674.5 641.0 679.5Q648.75 684.5 661.5 686.875Q674.25 689.25 696.75 689.25Q733 689.25 748.875 678.25Q764.75 667.25 768.625 649.75Q772.5 632.25 772.5 612.5V66Q772.5 47.25 768.625 29.875Q764.75 12.5 748.75 1.875Q732.75 -8.75 695.75 -8.75Q659.75 -8.75 643.875 2.25Q628 13.25 624.125 31.125Q620.25 49 620.25 68V424.5L471 213.5Q467.25 208.75 460.25 200.5Q453.25 192.25 440.75 185.875Q428.25 179.5 406.5 179.5Q384.75 179.5 372.125 185.875Q359.5 192.25 352.625 200.125Q345.75 208 341.25 214L193 423.75V66Q193 47.25 189.125 29.875Q185.25 12.5 169.375 1.875Q153.5 -8.75 116.5 -8.75Z"/><path transform="translate(105.01,25.98) scale(0.026000,-0.026000)" d="M687.75 96.5Q700.25 71.75 701.125 54.125Q702 36.5 690.375 23.125Q678.75 9.75 653 -3.5Q613 -22.5 591.125 -14.75Q569.25 -7 550.25 33.25L353.75 442.75L159 33Q139.25 -6 117.375 -13.625Q95.5 -21.25 56 -2.5Q30.25 9.75 18.375 23.375Q6.5 37 7.75 55.25Q9 73.5 21.75 99.25L284.75 645.75Q294.75 665.75 314.25 677.875Q333.75 690 354.75 690Q369.75 690 382.625 684.625Q395.5 679.25 406.25 669.25Q417 659.25 423.75 644.75ZM185.75 153.75 247.75 283.25H461L522.75 153.75Z"/><path transform="translate(123.96,25.98) scale(0.026000,-0.026000)" d="M389.5 -16.75Q315.75 -16.75 252.625 11.125Q189.5 39 142.0 88.875Q94.5 138.75 68.25 205.625Q42 272.5 42 350.75Q42 425.25 68.875 488.625Q95.75 552 144.0 599.375Q192.25 646.75 257.0 673.5Q321.75 700.25 397.5 700.5Q429.25 700.5 464.75 694.625Q500.25 688.75 534.0 676.75Q567.75 664.75 593 647.5Q612.75 634.5 628.375 620.125Q644 605.75 644.25 585.75Q644.75 575.5 639.75 563.25Q634.75 551 625.5 537.5Q610.25 515 594.5 504.75Q578.75 494.5 564.25 494.5Q555.5 494.5 544.625 499.875Q533.75 505.25 515.25 516.5Q505.75 522.75 486.875 530.0Q468 537.25 443.625 542.625Q419.25 548 392.75 548Q335.75 548 290.75 522.625Q245.75 497.25 220.125 452.0Q194.5 406.75 194.25 348.25Q194.5 288.25 220.875 240.625Q247.25 193 292.375 165.0Q337.5 137 393.5 137Q414 137 434.375 139.0Q454.75 141 474.5 145.5Q494.25 150 510.25 157V278.75H402.5Q386.25 278.75 372.5 282.0Q358.75 285.25 350.5 298.875Q342.25 312.5 342.25 344.5Q342.25 376.75 351.25 390.375Q360.25 404 374.625 407.0Q389 410 404.5 410H593.75Q627 409.25 641.0 398.0Q655 386.75 658.75 370.5Q662.5 354.25 662.5 335.25V116.5Q662.5 92.5 640.75 67.125Q619 41.75 581 22.5Q556.75 10 526.5 1.375Q496.25 -7.25 461.875 -12.0Q427.5 -16.75 389.5 -16.75Z"/><path transform="translate(143.07,24.18) scale(0.026000,-0.026000)" d="M367 -19Q294.63461538461536 -19 231.44230769230768 8.375Q168.25 35.75 120.375 84.5Q72.5 133.25 45.25 197.2922794117647Q18 261.3345588235294 18 334.5257352941176Q18 409.75 44.40625 475.60526315789474Q70.8125 541.4605263157895 117.53125 591.1052631578948Q164.25 640.75 226.14080459770116 668.75Q288.0316091954023 696.75 358.617816091954 696.75Q431.25 696.75 494.4555555555556 669.4607142857143Q557.6611111111112 642.1714285714286 605.0652777777777 593.1517857142858Q652.4694444444444 544.1321428571429 679.4847222222222 478.94107142857143Q706.5 413.75 706.5 338.3269230769231Q706.5 264.9423076923077 680.125 200.22115384615384Q653.75 135.5 606.7735849056603 86.01960784313725Q559.7971698113207 36.53921568627451 498.52358490566036 8.769607843137255Q437.25 -19 367 -19ZM361.75697674418603 133.25Q401.75 133.25 436.875 149.0Q472 164.75 498.375 192.5Q524.75 220.25 539.5 257.84030837004406Q554.25 295.4306167400881 554.25 338.69493392070484Q554.25 381.25 539.125 418.5Q524 455.75 497.5 484.25Q471 512.75 436.42056074766356 528.625Q401.8411214953271 544.5 362.42056074766356 544.5Q323 544.5 288.25 528.625Q253.5 512.75 227.0 484.375Q200.5 456 185.375 418.51480263157896Q170.25 381.0296052631579 170.25 338.2894736842105Q170.25 296.25 185.5125 258.8508064516129Q200.775 221.4516129032258 227.1375 193.2258064516129Q253.5 165 287.9767441860465 149.125Q322.45348837209303 133.25 361.75697674418603 133.25Z"/><path transform="translate(162.44,22.48) scale(0.026000,-0.026000)" d="M367 -19Q294.63461538461536 -19 231.44230769230768 8.375Q168.25 35.75 120.375 84.5Q72.5 133.25 45.25 197.2922794117647Q18 261.3345588235294 18 334.5257352941176Q18 409.75 44.40625 475.60526315789474Q70.8125 541.4605263157895 117.53125 591.1052631578948Q164.25 640.75 226.14080459770116 668.75Q288.0316091954023 696.75 358.617816091954 696.75Q431.25 696.75 494.4555555555556 669.4607142857143Q557.6611111111112 642.1714285714286 605.0652777777777 593.1517857142858Q652.4694444444444 544.1321428571429 679.4847222222222 478.94107142857143Q706.5 413.75 706.5 338.3269230769231Q706.5 264.9423076923077 680.125 200.22115384615384Q653.75 135.5 606.7735849056603 86.01960784313725Q559.7971698113207 36.53921568627451 498.52358490566036 8.769607843137255Q437.25 -19 367 -19ZM361.75697674418603 133.25Q401.75 133.25 436.875 149.0Q472 164.75 498.375 192.5Q524.75 220.25 539.5 257.84030837004406Q554.25 295.4306167400881 554.25 338.69493392070484Q554.25 381.25 539.125 418.5Q524 455.75 497.5 484.25Q471 512.75 436.42056074766356 528.625Q401.8411214953271 544.5 362.42056074766356 544.5Q323 544.5 288.25 528.625Q253.5 512.75 227.0 484.375Q200.5 456 185.375 418.51480263157896Q170.25 381.0296052631579 170.25 338.2894736842105Q170.25 296.25 185.5125 258.8508064516129Q200.775 221.4516129032258 227.1375 193.2258064516129Q253.5 165 287.9767441860465 149.125Q322.45348837209303 133.25 361.75697674418603 133.25Z"/><path transform="translate(181.81,25.98) scale(0.026000,-0.026000)" d="M271 -19.25Q217.75 -19.25 178.25 -6.25Q138.75 6.75 111.5 25.5Q84.25 44.25 67.875 61.875Q51.5 79.5 45.5 88.75Q28.75 110.5 24.625 127.375Q20.5 144.25 29.0 161.0Q37.5 177.75 59 197.5Q79.5 216.25 98.25 217.75Q117 219.25 134.875 208.25Q152.75 197.25 169.75 177Q194 147.5 217.375 136.0Q240.75 124.5 267 124.5Q300 124.5 323.0 132.875Q346 141.25 358.125 158.5Q370.25 175.75 370.25 202.75Q370.25 224.75 353.625 238.375Q337 252 309.625 261.75Q282.25 271.5 248.625 281.0Q215 290.5 181.5 303.75Q159.25 312 137.875 323.75Q116.5 335.5 97.875 350.75Q79.25 366 65.5 387.0Q51.75 408 44.125 435.0Q36.5 462 36.5 496.75Q36.5 555.75 65.75 601.625Q95 647.5 146.625 674.125Q198.25 700.75 264.5 700.75Q309.5 700.75 343.25 693.0Q377 685.25 400.0 674.125Q423 663 436.625 652.5Q450.25 642 455.25 636.25Q483.25 610 486.0 591.375Q488.75 572.75 465 539.75Q439.5 505 415.25 501.0Q391 497 359.75 518Q348 529.25 335.875 538.25Q323.75 547.25 307.25 552.5Q290.75 557.75 263.5 557.75Q248.25 557.75 234.125 553.25Q220 548.75 209.875 540.75Q199.75 532.75 193.75 521.25Q187.75 509.75 187.75 495.75Q187.75 472.5 203.125 458.5Q218.5 444.5 244.25 436.125Q270 427.75 301.375 420.25Q332.75 412.75 365.5 402.75Q395.5 393 423.875 378.5Q452.25 364 474.25 341.75Q496.25 319.5 509.625 286.5Q523 253.5 523 205.75Q523 145.75 499.875 102.625Q476.75 59.5 439.0 32.75Q401.25 6 357.125 -6.625Q313 -19.25 271 -19.25Z"/><path transform="translate(196.53,25.98) scale(0.026000,-0.026000)" d="M542.75 -8.75Q506.25 -8.75 490.375 2.125Q474.5 13 470.875 30.875Q467.25 48.75 467.25 68V614.25Q467.25 633.5 471.0 650.875Q474.75 668.25 490.625 679.125Q506.5 690 543.75 690Q581 690 596.5 679.125Q612 668.25 615.625 650.875Q619.25 633.5 619.25 613.25V67Q619.25 47.75 615.5 30.375Q611.75 13 595.875 2.125Q580 -8.75 542.75 -8.75ZM118.5 -8.75Q82 -8.75 66.125 2.125Q50.25 13 46.625 30.875Q43 48.75 43 68V614.25Q43 633.5 46.75 650.875Q50.5 668.25 66.375 679.125Q82.25 690 119.5 690Q156.75 690 172.25 679.125Q187.75 668.25 191.375 650.875Q195 633.5 195 613.25V67Q195 47.75 191.25 30.375Q187.5 13 171.625 2.125Q155.75 -8.75 118.5 -8.75ZM170.75 277.25V409.25H483.25L483 277.25Z"/><path transform="translate(214.26,25.98) scale(0.026000,-0.026000)" d="M115.25 -9.5Q78.75 -9.5 62.875 1.375Q47 12.25 43.375 30.125Q39.75 48 39.75 67.25V614.25Q39.75 633.5 43.5 650.875Q47.25 668.25 63.125 679.125Q79 690 116.25 690Q153.5 690 169.0 679.125Q184.5 668.25 188.125 650.875Q191.75 633.5 191.75 613.25V66.25Q191.75 47 188.0 29.625Q184.25 12.25 168.375 1.375Q152.5 -9.5 115.25 -9.5Z"/></g></svg>
