<svg xmlns="http://www.w3.org/2000/svg" width="128" height="28" viewBox="0 0 128.24 27.83" role="img" aria-label="Hardware"><g fill="#f0f3f8"><path transform="translate(0.50,22.4) scale(0.023000,-0.023000)" d="M542.75 -8.75Q506.25 -8.75 490.375 2.125Q474.5 13 470.875 30.875Q467.25 48.75 467.25 68V614.25Q467.25 633.5 471.0 650.875Q474.75 668.25 490.625 679.125Q506.5 690 543.75 690Q581 690 596.5 679.125Q612 668.25 615.625 650.875Q619.25 633.5 619.25 613.25V67Q619.25 47.75 615.5 30.375Q611.75 13 595.875 2.125Q580 -8.75 542.75 -8.75ZM118.5 -8.75Q82 -8.75 66.125 2.125Q50.25 13 46.625 30.875Q43 48.75 43 68V614.25Q43 633.5 46.75 650.875Q50.5 668.25 66.375 679.125Q82.25 690 119.5 690Q156.75 690 172.25 679.125Q187.75 668.25 191.375 650.875Q195 633.5 195 613.25V67Q195 47.75 191.25 30.375Q187.5 13 171.625 2.125Q155.75 -8.75 118.5 -8.75ZM170.75 277.25V409.25H483.25L483 277.25Z"/><path transform="translate(15.73,22.4) scale(0.023000,-0.023000)" d="M687.75 96.5Q700.25 71.75 701.125 54.125Q702 36.5 690.375 23.125Q678.75 9.75 653 -3.5Q613 -22.5 591.125 -14.75Q569.25 -7 550.25 33.25L353.75 442.75L159 33Q139.25 -6 117.375 -13.625Q95.5 -21.25 56 -2.5Q30.25 9.75 18.375 23.375Q6.5 37 7.75 55.25Q9 73.5 21.75 99.25L284.75 645.75Q294.75 665.75 314.25 677.875Q333.75 690 354.75 690Q369.75 690 382.625 684.625Q395.5 679.25 406.25 669.25Q417 659.25 423.75 644.75ZM185.75 153.75 247.75 283.25H461L522.75 153.75Z"/><path transform="translate(32.03,22.4) scale(0.023000,-0.023000)" d="M124 -8.75Q87.5 -8.75 71.625 2.125Q55.75 13 52.125 30.875Q48.5 48.75 48.5 68V614.5Q48.5 633.5 52.375 650.75Q56.25 668 72.125 679.0Q88 690 125 690H332.5Q374.25 690 417.125 674.875Q460 659.75 496.0 629.0Q532 598.25 554.125 552.125Q576.25 506 576.25 443.25Q576.25 401 563.625 361.75Q551 322.5 525.875 289.875Q500.75 257.25 464.0 233.625Q427.25 210 378.75 199.5H200.5V67Q200.5 47.75 196.75 30.375Q193 13 177.125 2.125Q161.25 -8.75 124 -8.75ZM546.25 11Q509.25 -16.25 487.125 -10.375Q465 -4.5 440.75 28.75L264.75 280.75L436.25 303L565 118.25Q581.75 93.75 586.125 76.75Q590.5 59.75 581.0 44.75Q571.5 29.75 546.25 11ZM200.5 350.25H340Q353.5 350.25 368.5 355.375Q383.5 360.5 395.875 371.875Q408.25 383.25 416.25 401.0Q424.25 418.75 424.25 444.25Q424.25 472.75 412.375 493.75Q400.5 514.75 379.5 526.25Q358.5 537.75 330.5 537.75H200.5Z"/><path transform="translate(46.09,22.4) scale(0.023000,-0.023000)" d="M115.75 -8.75Q81.25 -8.75 65.375 2.0Q49.5 12.75 44.875 30.25Q40.25 47.75 40.25 68V615.25Q40.25 634.25 44.125 651.625Q48 669 64.0 680.0Q80 691 116.75 690.25L297 690Q369 690 431.125 663.875Q493.25 637.75 540.0 591.0Q586.75 544.25 612.75 481.0Q638.75 417.75 638.75 344.25Q638.75 268.75 612.625 204.375Q586.5 140 539.75 92.25Q493 44.5 430.375 17.875Q367.75 -8.75 294 -8.75ZM192.25 143.5H297Q351.25 143.5 394.25 169.0Q437.25 194.5 461.875 238.75Q486.5 283 486.5 340Q486.5 397.25 461.875 442.0Q437.25 486.75 394.125 512.25Q351 537.75 296 537.75H192.25Z"/><path transform="translate(61.43,22.4) scale(0.023000,-0.023000)" d="M287 -7.5Q260.75 -7.5 245.875 2.75Q231 13 224.25 25.75Q217.5 38.5 215.5 44.25L27.5 589.25Q15 630.5 23.75 651.0Q32.5 671.5 75.5 685.5Q103.75 694.75 121.25 693.875Q138.75 693 150.5 679.75Q162.25 666.5 171.25 638.5L295.5 268.25L400.75 634Q403.75 643.75 410.25 657.0Q416.75 670.25 431.75 680.125Q446.75 690 474.25 690Q505.25 690 520.625 679.0Q536 668 542.125 655.125Q548.25 642.25 550.75 634.5L656.5 266L780.75 638Q790 665.75 801.375 679.5Q812.75 693.25 831.25 695.0Q849.75 696.75 878 686.75Q907.5 676.25 919.875 664.25Q932.25 652.25 932.625 634.625Q933 617 924.5 589.25L737.25 44Q735.25 37.75 728.75 25.375Q722.25 13 707.375 2.75Q692.5 -7.5 665 -7.5Q637.5 -7.5 621.875 4.625Q606.25 16.75 599.375 30.5Q592.5 44.25 591 48.5L476 422.25L361 49.25Q359.5 43.5 352.625 29.75Q345.75 16 330.5 4.25Q315.25 -7.5 287 -7.5Z"/><path transform="translate(83.35,22.4) scale(0.023000,-0.023000)" d="M687.75 96.5Q700.25 71.75 701.125 54.125Q702 36.5 690.375 23.125Q678.75 9.75 653 -3.5Q613 -22.5 591.125 -14.75Q569.25 -7 550.25 33.25L353.75 442.75L159 33Q139.25 -6 117.375 -13.625Q95.5 -21.25 56 -2.5Q30.25 9.75 18.375 23.375Q6.5 37 7.75 55.25Q9 73.5 21.75 99.25L284.75 645.75Q294.75 665.75 314.25 677.875Q333.75 690 354.75 690Q369.75 690 382.625 684.625Q395.5 679.25 406.25 669.25Q417 659.25 423.75 644.75ZM185.75 153.75 247.75 283.25H461L522.75 153.75Z"/><path transform="translate(99.65,22.4) scale(0.023000,-0.023000)" d="M124 -8.75Q87.5 -8.75 71.625 2.125Q55.75 13 52.125 30.875Q48.5 48.75 48.5 68V614.5Q48.5 633.5 52.375 650.75Q56.25 668 72.125 679.0Q88 690 125 690H332.5Q374.25 690 417.125 674.875Q460 659.75 496.0 629.0Q532 598.25 554.125 552.125Q576.25 506 576.25 443.25Q576.25 401 563.625 361.75Q551 322.5 525.875 289.875Q500.75 257.25 464.0 233.625Q427.25 210 378.75 199.5H200.5V67Q200.5 47.75 196.75 30.375Q193 13 177.125 2.125Q161.25 -8.75 124 -8.75ZM546.25 11Q509.25 -16.25 487.125 -10.375Q465 -4.5 440.75 28.75L264.75 280.75L436.25 303L565 118.25Q581.75 93.75 586.125 76.75Q590.5 59.75 581.0 44.75Q571.5 29.75 546.25 11ZM200.5 350.25H340Q353.5 350.25 368.5 355.375Q383.5 360.5 395.875 371.875Q408.25 383.25 416.25 401.0Q424.25 418.75 424.25 444.25Q424.25 472.75 412.375 493.75Q400.5 514.75 379.5 526.25Q358.5 537.75 330.5 537.75H200.5Z"/><path transform="translate(113.71,22.4) scale(0.023000,-0.023000)" d="M126.25 -9.5Q89.75 -9.5 73.875 1.375Q58 12.25 54.375 30.125Q50.75 48 50.75 67.25V614.25Q50.75 657.5 67.875 673.75Q85 690 129.25 690H507.25Q527.25 690 544.25 686.25Q561.25 682.5 572.0 666.625Q582.75 650.75 582.75 613.25Q582.75 576.75 571.875 560.875Q561 545 543.625 541.375Q526.25 537.75 506.25 537.75H202.75V409.25H409.25Q429.25 409.25 444.375 405.875Q459.5 402.5 468.5 388.875Q477.5 375.25 477.5 342.25Q477.5 311 468.5 297.0Q459.5 283 443.5 280.125Q427.5 277.25 407.25 277.25H202.75V142.75H507.25Q527.25 142.75 544.25 139.0Q561.25 135.25 572.0 119.375Q582.75 103.5 582.75 66.25Q582.75 29.75 571.875 13.875Q561 -2 543.625 -5.75Q526.25 -9.5 506.25 -9.5Z"/></g></svg>
