<svg xmlns="http://www.w3.org/2000/svg" width="129" height="24" viewBox="0 0 129.24 24.2" role="img" aria-label="Quick start"><g fill="#f0f3f8"><path transform="translate(0.50,19.48) scale(0.020000,-0.020000)" d="M732.5 132Q768.25 108.5 772.375 85.75Q776.5 63 751 26.5Q733 1 718.0 -8.125Q703 -17.25 685.875 -12.375Q668.75 -7.5 645.5 7.5L571.5 56.25Q529.25 21.25 477.125 1.125Q425 -19 367 -19Q294.5 -19 231.375 8.375Q168.25 35.75 120.375 84.5Q72.5 133.25 45.25 197.375Q18 261.5 18 334.25Q18 409.75 44.375 475.5Q70.75 541.25 117.5 591.0Q164.25 640.75 226.25 668.75Q288.25 696.75 358.75 696.75Q431.25 696.75 494.375 669.375Q557.5 642 605.125 593.125Q652.75 544.25 679.625 479.0Q706.5 413.75 706.5 338.25Q706.5 294.75 696.375 253.75Q686.25 212.75 667.25 176ZM361.75 133.25Q401.75 133.25 436.875 149.0Q472 164.75 498.375 192.5Q524.75 220.25 539.5 257.875Q554.25 295.5 554.25 338.5Q554.25 381.25 539.125 418.5Q524 455.75 497.5 484.25Q471 512.75 436.375 528.625Q401.75 544.5 362.75 544.5Q323 544.5 287.875 528.625Q252.75 512.75 226.25 484.375Q199.75 456 185.0 418.625Q170.25 381.25 170.25 338.25Q170.25 295.5 185.5 258.25Q200.75 221 227.125 193.0Q253.5 165 288.125 149.125Q322.75 133.25 361.75 133.25Z"/><path transform="translate(16.34,19.48) scale(0.020000,-0.020000)" d="M342.25 -17.75Q269.25 -17.75 213.375 10.375Q157.5 38.5 119.375 86.125Q81.25 133.75 62.0 193.125Q42.75 252.5 42.75 315V614.25Q42.75 634.25 46.5 651.625Q50.25 669 66.125 679.875Q82 690.75 119.25 690.75Q156.75 690.75 172.625 679.875Q188.5 669 192.25 651.625Q196 634.25 196 613.25V315Q196 270.75 210.625 229.625Q225.25 188.5 258.0 161.75Q290.75 135 345.25 135Q390.75 135 423.75 157.25Q456.75 179.5 474.75 220.25Q492.75 261 492.75 316V619.5Q492.75 638.25 496.875 654.125Q501 670 517.0 680.375Q533 690.75 569.5 690.75Q606.75 690.75 622.25 679.5Q637.75 668.25 641.375 650.875Q645 633.5 645 613.25V313Q645 249.75 625.375 190.875Q605.75 132 567.125 84.875Q528.5 37.75 472.125 10.0Q415.75 -17.75 342.25 -17.75Z"/><path transform="translate(30.10,19.48) scale(0.020000,-0.020000)" d="M115.25 -9.5Q78.75 -9.5 62.875 1.375Q47 12.25 43.375 30.125Q39.75 48 39.75 67.25V614.25Q39.75 633.5 43.5 650.875Q47.25 668.25 63.125 679.125Q79 690 116.25 690Q153.5 690 169.0 679.125Q184.5 668.25 188.125 650.875Q191.75 633.5 191.75 613.25V66.25Q191.75 47 188.0 29.625Q184.25 12.25 168.375 1.375Q152.5 -9.5 115.25 -9.5Z"/><path transform="translate(34.74,19.48) scale(0.020000,-0.020000)" d="M383.75 -16.75Q339.75 -16.75 290.75 -3.125Q241.75 10.5 194.625 38.625Q147.5 66.75 109.375 110.125Q71.25 153.5 48.625 212.125Q26 270.75 26 345.5Q26 417.75 48.625 474.5Q71.25 531.25 109.0 573.25Q146.75 615.25 193.875 642.375Q241 669.5 290.75 683.0Q340.5 696.5 386 696.75Q436.75 696.75 474.75 685.0Q512.75 673.25 536.625 660.375Q560.5 647.5 567.25 643Q585.25 631.5 601.25 617.5Q617.25 603.5 617.75 581.25Q618.25 569 613.5 557.25Q608.75 545.5 599.75 533Q583.75 510.25 569.125 499.75Q554.5 489.25 540 489.25Q528 489.25 517.25 495.25Q506.5 501.25 491 511.25Q484.25 516 471.0 523.375Q457.75 530.75 435.625 537.125Q413.5 543.5 379.75 543.5Q345.25 543.5 309.5 531.125Q273.75 518.75 244.0 493.75Q214.25 468.75 196.25 430.375Q178.25 392 178.25 340.5Q178.25 288.25 196.625 250.125Q215 212 244.75 187.0Q274.5 162 310.25 149.625Q346 137.25 379.75 137.25Q409.75 137.25 431.125 142.875Q452.5 148.5 468.375 157.125Q484.25 165.75 494.75 172.5Q505.75 180 517.25 186.0Q528.75 192 540.75 192Q555.25 192 569.5 180.875Q583.75 169.75 599 146.25Q608 132.5 612.75 120.125Q617.5 107.75 617 96.25Q616.5 74.75 600.5 61.125Q584.5 47.5 566.5 36.75Q559 32.5 536.125 19.125Q513.25 5.75 475.25 -5.5Q437.25 -16.75 383.75 -16.75Z"/><path transform="translate(47.60,19.48) scale(0.020000,-0.020000)" d="M125.25 -9.5Q88.75 -9.5 72.875 1.375Q57 12.25 53.375 30.0Q49.75 47.75 49.75 67V614.5Q49.75 633.75 53.5 651.125Q57.25 668.5 73.125 679.25Q89 690 126.25 690Q163.5 690 179.0 679.125Q194.5 668.25 198.25 650.875Q202 633.5 202 613.5V441L416.25 664.5Q435.75 685.25 452.375 693.25Q469 701.25 486.375 696.0Q503.75 690.75 524.25 670.75Q558 639.75 558.5 616.5Q559 593.25 530.25 563.5L300.25 340L532.25 117.5Q563.25 87 561.625 62.625Q560 38.25 526.25 9.5Q502 -10.5 484.625 -15.75Q467.25 -21 452.125 -12.625Q437 -4.25 418.25 17.25L202 241.75V66Q202 46.75 198.25 29.375Q194.5 12 178.625 1.25Q162.75 -9.5 125.25 -9.5Z"/><path transform="translate(65.50,19.48) scale(0.020000,-0.020000)" d="M271 -19.25Q217.75 -19.25 178.25 -6.25Q138.75 6.75 111.5 25.5Q84.25 44.25 67.875 61.875Q51.5 79.5 45.5 88.75Q28.75 110.5 24.625 127.375Q20.5 144.25 29.0 161.0Q37.5 177.75 59 197.5Q79.5 216.25 98.25 217.75Q117 219.25 134.875 208.25Q152.75 197.25 169.75 177Q194 147.5 217.375 136.0Q240.75 124.5 267 124.5Q300 124.5 323.0 132.875Q346 141.25 358.125 158.5Q370.25 175.75 370.25 202.75Q370.25 224.75 353.625 238.375Q337 252 309.625 261.75Q282.25 271.5 248.625 281.0Q215 290.5 181.5 303.75Q159.25 312 137.875 323.75Q116.5 335.5 97.875 350.75Q79.25 366 65.5 387.0Q51.75 408 44.125 435.0Q36.5 462 36.5 496.75Q36.5 555.75 65.75 601.625Q95 647.5 146.625 674.125Q198.25 700.75 264.5 700.75Q309.5 700.75 343.25 693.0Q377 685.25 400.0 674.125Q423 663 436.625 652.5Q450.25 642 455.25 636.25Q483.25 610 486.0 591.375Q488.75 572.75 465 539.75Q439.5 505 415.25 501.0Q391 497 359.75 518Q348 529.25 335.875 538.25Q323.75 547.25 307.25 552.5Q290.75 557.75 263.5 557.75Q248.25 557.75 234.125 553.25Q220 548.75 209.875 540.75Q199.75 532.75 193.75 521.25Q187.75 509.75 187.75 495.75Q187.75 472.5 203.125 458.5Q218.5 444.5 244.25 436.125Q270 427.75 301.375 420.25Q332.75 412.75 365.5 402.75Q395.5 393 423.875 378.5Q452.25 364 474.25 341.75Q496.25 319.5 509.625 286.5Q523 253.5 523 205.75Q523 145.75 499.875 102.625Q476.75 59.5 439.0 32.75Q401.25 6 357.125 -6.625Q313 -19.25 271 -19.25Z"/><path transform="translate(76.42,19.48) scale(0.020000,-0.020000)" d="M561.5 690.75Q578.5 690.75 592.75 687.75Q607 684.75 616.25 671.125Q625.5 657.5 625.5 625.25Q625.5 594 616.125 580.0Q606.75 566 592.0 563.125Q577.25 560.25 560.25 560.25H399.25V64.75Q399.25 45.5 395.5 28.5Q391.75 11.5 376.25 1.0Q360.75 -9.5 323.5 -9.5Q287.75 -9.5 271.875 1.375Q256 12.25 252.75 29.375Q249.5 46.5 249.5 65.75V560.25H87Q70.75 560.25 56.0 563.5Q41.25 566.75 31.875 580.375Q22.5 594 22.5 626Q22.5 657.5 31.75 671.125Q41 684.75 56.125 687.75Q71.25 690.75 87.25 690.75Z"/><path transform="translate(89.38,19.48) scale(0.020000,-0.020000)" d="M687.75 96.5Q700.25 71.75 701.125 54.125Q702 36.5 690.375 23.125Q678.75 9.75 653 -3.5Q613 -22.5 591.125 -14.75Q569.25 -7 550.25 33.25L353.75 442.75L159 33Q139.25 -6 117.375 -13.625Q95.5 -21.25 56 -2.5Q30.25 9.75 18.375 23.375Q6.5 37 7.75 55.25Q9 73.5 21.75 99.25L284.75 645.75Q294.75 665.75 314.25 677.875Q333.75 690 354.75 690Q369.75 690 382.625 684.625Q395.5 679.25 406.25 669.25Q417 659.25 423.75 644.75ZM185.75 153.75 247.75 283.25H461L522.75 153.75Z"/><path transform="translate(103.56,19.48) scale(0.020000,-0.020000)" d="M124 -8.75Q87.5 -8.75 71.625 2.125Q55.75 13 52.125 30.875Q48.5 48.75 48.5 68V614.5Q48.5 633.5 52.375 650.75Q56.25 668 72.125 679.0Q88 690 125 690H332.5Q374.25 690 417.125 674.875Q460 659.75 496.0 629.0Q532 598.25 554.125 552.125Q576.25 506 576.25 443.25Q576.25 401 563.625 361.75Q551 322.5 525.875 289.875Q500.75 257.25 464.0 233.625Q427.25 210 378.75 199.5H200.5V67Q200.5 47.75 196.75 30.375Q193 13 177.125 2.125Q161.25 -8.75 124 -8.75ZM546.25 11Q509.25 -16.25 487.125 -10.375Q465 -4.5 440.75 28.75L264.75 280.75L436.25 303L565 118.25Q581.75 93.75 586.125 76.75Q590.5 59.75 581.0 44.75Q571.5 29.75 546.25 11ZM200.5 350.25H340Q353.5 350.25 368.5 355.375Q383.5 360.5 395.875 371.875Q408.25 383.25 416.25 401.0Q424.25 418.75 424.25 444.25Q424.25 472.75 412.375 493.75Q400.5 514.75 379.5 526.25Q358.5 537.75 330.5 537.75H200.5Z"/><path transform="translate(115.78,19.48) scale(0.020000,-0.020000)" d="M561.5 690.75Q578.5 690.75 592.75 687.75Q607 684.75 616.25 671.125Q625.5 657.5 625.5 625.25Q625.5 594 616.125 580.0Q606.75 566 592.0 563.125Q577.25 560.25 560.25 560.25H399.25V64.75Q399.25 45.5 395.5 28.5Q391.75 11.5 376.25 1.0Q360.75 -9.5 323.5 -9.5Q287.75 -9.5 271.875 1.375Q256 12.25 252.75 29.375Q249.5 46.5 249.5 65.75V560.25H87Q70.75 560.25 56.0 563.5Q41.25 566.75 31.875 580.375Q22.5 594 22.5 626Q22.5 657.5 31.75 671.125Q41 684.75 56.125 687.75Q71.25 690.75 87.25 690.75Z"/></g></svg>
