<svg xmlns="http://www.w3.org/2000/svg" width="46" height="28" viewBox="0 0 46.29 27.83" role="img" aria-label="Hub"><g fill="#18181b"><path transform="translate(0.50,22.4) scale(0.023000,-0.023000)" d="M542.75 -8.75Q506.25 -8.75 490.375 2.125Q474.5 13 470.875 30.875Q467.25 48.75 467.25 68V614.25Q467.25 633.5 471.0 650.875Q474.75 668.25 490.625 679.125Q506.5 690 543.75 690Q581 690 596.5 679.125Q612 668.25 615.625 650.875Q619.25 633.5 619.25 613.25V67Q619.25 47.75 615.5 30.375Q611.75 13 595.875 2.125Q580 -8.75 542.75 -8.75ZM118.5 -8.75Q82 -8.75 66.125 2.125Q50.25 13 46.625 30.875Q43 48.75 43 68V614.25Q43 633.5 46.75 650.875Q50.5 668.25 66.375 679.125Q82.25 690 119.5 690Q156.75 690 172.25 679.125Q187.75 668.25 191.375 650.875Q195 633.5 195 613.25V67Q195 47.75 191.25 30.375Q187.5 13 171.625 2.125Q155.75 -8.75 118.5 -8.75ZM170.75 277.25V409.25H483.25L483 277.25Z"/><path transform="translate(15.73,22.4) scale(0.023000,-0.023000)" d="M342.25 -17.75Q269.25 -17.75 213.375 10.375Q157.5 38.5 119.375 86.125Q81.25 133.75 62.0 193.125Q42.75 252.5 42.75 315V614.25Q42.75 634.25 46.5 651.625Q50.25 669 66.125 679.875Q82 690.75 119.25 690.75Q156.75 690.75 172.625 679.875Q188.5 669 192.25 651.625Q196 634.25 196 613.25V315Q196 270.75 210.625 229.625Q225.25 188.5 258.0 161.75Q290.75 135 345.25 135Q390.75 135 423.75 157.25Q456.75 179.5 474.75 220.25Q492.75 261 492.75 316V619.5Q492.75 638.25 496.875 654.125Q501 670 517.0 680.375Q533 690.75 569.5 690.75Q606.75 690.75 622.25 679.5Q637.75 668.25 641.375 650.875Q645 633.5 645 613.25V313Q645 249.75 625.375 190.875Q605.75 132 567.125 84.875Q528.5 37.75 472.125 10.0Q415.75 -17.75 342.25 -17.75Z"/><path transform="translate(31.55,22.4) scale(0.023000,-0.023000)" d="M113.5 -8.75Q77.75 -8.75 61.875 2.5Q46 13.75 42.25 32.125Q38.5 50.5 38.5 71V613Q38.5 632.75 42.375 650.5Q46.25 668.25 62.125 679.5Q78 690.75 114.5 690.75H363.5Q423 690.75 469.125 662.625Q515.25 634.5 541.875 587.625Q568.5 540.75 568.25 485.75Q568.5 464.25 563.875 442.875Q559.25 421.5 549.75 402.125Q540.25 382.75 526.25 366.5Q546.5 347 560.875 321.625Q575.25 296.25 582.625 268.25Q590 240.25 590 211Q589 164.5 572.25 124.375Q555.5 84.25 525.625 54.625Q495.75 25 456.75 8.125Q417.75 -8.75 373.5 -8.75ZM190.5 142H363.5Q381.25 142 398.625 148.625Q416 155.25 427.25 172.625Q438.5 190 438.5 222Q438.5 243.25 433.5 256.875Q428.5 270.5 419.625 278.125Q410.75 285.75 399.875 289.0Q389 292.25 377.125 293.125Q365.25 294 353.75 294H324.5Q291.25 294 276.875 308.625Q262.5 323.25 262.5 359.25Q262.5 393.5 278.125 407.5Q293.75 421.5 328.25 421.5H356.75Q367.25 421.5 378.0 422.5Q388.75 423.5 397.5 428.625Q406.25 433.75 411.75 445.125Q417.25 456.5 417.25 477.25Q417.25 511.25 400.25 525.5Q383.25 539.75 339.5 539.75H190.5Z"/></g></svg>
