<svg xmlns="http://www.w3.org/2000/svg" width="90" height="28" viewBox="0 0 90.45 27.83" role="img" aria-label="License"><g fill="#f0f3f8"><path transform="translate(0.50,22.4) scale(0.023000,-0.023000)" d="M131.25 -9.5Q94.5 -9.5 78.5 1.375Q62.5 12.25 58.75 30.0Q55 47.75 55 67V614Q55 633.5 58.625 650.875Q62.25 668.25 78.125 679.125Q94 690 131.25 690Q168.5 690 184.0 679.125Q199.5 668.25 203.25 650.875Q207 633.5 207 613.5V122.5H481.25Q498.25 122.5 513.0 119.625Q527.75 116.75 537.125 102.75Q546.5 88.75 546.5 56.75Q546.5 25.5 536.875 11.375Q527.25 -2.75 512.625 -6.125Q498 -9.5 481 -9.5Z"/><path transform="translate(13.49,22.4) scale(0.023000,-0.023000)" d="M115.25 -9.5Q78.75 -9.5 62.875 1.375Q47 12.25 43.375 30.125Q39.75 48 39.75 67.25V614.25Q39.75 633.5 43.5 650.875Q47.25 668.25 63.125 679.125Q79 690 116.25 690Q153.5 690 169.0 679.125Q184.5 668.25 188.125 650.875Q191.75 633.5 191.75 613.25V66.25Q191.75 47 188.0 29.625Q184.25 12.25 168.375 1.375Q152.5 -9.5 115.25 -9.5Z"/><path transform="translate(18.83,22.4) scale(0.023000,-0.023000)" d="M383.75 -16.75Q339.75 -16.75 290.75 -3.125Q241.75 10.5 194.625 38.625Q147.5 66.75 109.375 110.125Q71.25 153.5 48.625 212.125Q26 270.75 26 345.5Q26 417.75 48.625 474.5Q71.25 531.25 109.0 573.25Q146.75 615.25 193.875 642.375Q241 669.5 290.75 683.0Q340.5 696.5 386 696.75Q436.75 696.75 474.75 685.0Q512.75 673.25 536.625 660.375Q560.5 647.5 567.25 643Q585.25 631.5 601.25 617.5Q617.25 603.5 617.75 581.25Q618.25 569 613.5 557.25Q608.75 545.5 599.75 533Q583.75 510.25 569.125 499.75Q554.5 489.25 540 489.25Q528 489.25 517.25 495.25Q506.5 501.25 491 511.25Q484.25 516 471.0 523.375Q457.75 530.75 435.625 537.125Q413.5 543.5 379.75 543.5Q345.25 543.5 309.5 531.125Q273.75 518.75 244.0 493.75Q214.25 468.75 196.25 430.375Q178.25 392 178.25 340.5Q178.25 288.25 196.625 250.125Q215 212 244.75 187.0Q274.5 162 310.25 149.625Q346 137.25 379.75 137.25Q409.75 137.25 431.125 142.875Q452.5 148.5 468.375 157.125Q484.25 165.75 494.75 172.5Q505.75 180 517.25 186.0Q528.75 192 540.75 192Q555.25 192 569.5 180.875Q583.75 169.75 599 146.25Q608 132.5 612.75 120.125Q617.5 107.75 617 96.25Q616.5 74.75 600.5 61.125Q584.5 47.5 566.5 36.75Q559 32.5 536.125 19.125Q513.25 5.75 475.25 -5.5Q437.25 -16.75 383.75 -16.75Z"/><path transform="translate(33.62,22.4) scale(0.023000,-0.023000)" d="M126.25 -9.5Q89.75 -9.5 73.875 1.375Q58 12.25 54.375 30.125Q50.75 48 50.75 67.25V614.25Q50.75 657.5 67.875 673.75Q85 690 129.25 690H507.25Q527.25 690 544.25 686.25Q561.25 682.5 572.0 666.625Q582.75 650.75 582.75 613.25Q582.75 576.75 571.875 560.875Q561 545 543.625 541.375Q526.25 537.75 506.25 537.75H202.75V409.25H409.25Q429.25 409.25 444.375 405.875Q459.5 402.5 468.5 388.875Q477.5 375.25 477.5 342.25Q477.5 311 468.5 297.0Q459.5 283 443.5 280.125Q427.5 277.25 407.25 277.25H202.75V142.75H507.25Q527.25 142.75 544.25 139.0Q561.25 135.25 572.0 119.375Q582.75 103.5 582.75 66.25Q582.75 29.75 571.875 13.875Q561 -2 543.625 -5.75Q526.25 -9.5 506.25 -9.5Z"/><path transform="translate(47.65,22.4) scale(0.023000,-0.023000)" d="M114.75 -9.25Q79.5 -9.25 63.75 1.75Q48 12.75 44.125 30.25Q40.25 47.75 40.25 67.5V616.75Q40.25 635.5 44.25 651.875Q48.25 668.25 64.75 678.75Q81.25 689.25 117.5 689.25Q154.25 689.25 168.0 680.625Q181.75 672 193.25 657.25L485.25 256V616.75Q485.25 635.5 489.5 651.875Q493.75 668.25 509.75 678.75Q525.75 689.25 562 689.25Q598.75 689.25 614.25 678.25Q629.75 667.25 633.5 649.75Q637.25 632.25 637.25 612.5V66.5Q637.25 47.5 633.125 30.125Q629 12.75 612.75 1.75Q596.5 -9.25 559.5 -9.25Q531.5 -9.25 516.375 -4.375Q501.25 0.5 490.25 15L191.5 419V66.5Q191.5 47.5 187.625 30.125Q183.75 12.75 167.75 1.75Q151.75 -9.25 114.75 -9.25Z"/><path transform="translate(63.36,22.4) scale(0.023000,-0.023000)" d="M271 -19.25Q217.75 -19.25 178.25 -6.25Q138.75 6.75 111.5 25.5Q84.25 44.25 67.875 61.875Q51.5 79.5 45.5 88.75Q28.75 110.5 24.625 127.375Q20.5 144.25 29.0 161.0Q37.5 177.75 59 197.5Q79.5 216.25 98.25 217.75Q117 219.25 134.875 208.25Q152.75 197.25 169.75 177Q194 147.5 217.375 136.0Q240.75 124.5 267 124.5Q300 124.5 323.0 132.875Q346 141.25 358.125 158.5Q370.25 175.75 370.25 202.75Q370.25 224.75 353.625 238.375Q337 252 309.625 261.75Q282.25 271.5 248.625 281.0Q215 290.5 181.5 303.75Q159.25 312 137.875 323.75Q116.5 335.5 97.875 350.75Q79.25 366 65.5 387.0Q51.75 408 44.125 435.0Q36.5 462 36.5 496.75Q36.5 555.75 65.75 601.625Q95 647.5 146.625 674.125Q198.25 700.75 264.5 700.75Q309.5 700.75 343.25 693.0Q377 685.25 400.0 674.125Q423 663 436.625 652.5Q450.25 642 455.25 636.25Q483.25 610 486.0 591.375Q488.75 572.75 465 539.75Q439.5 505 415.25 501.0Q391 497 359.75 518Q348 529.25 335.875 538.25Q323.75 547.25 307.25 552.5Q290.75 557.75 263.5 557.75Q248.25 557.75 234.125 553.25Q220 548.75 209.875 540.75Q199.75 532.75 193.75 521.25Q187.75 509.75 187.75 495.75Q187.75 472.5 203.125 458.5Q218.5 444.5 244.25 436.125Q270 427.75 301.375 420.25Q332.75 412.75 365.5 402.75Q395.5 393 423.875 378.5Q452.25 364 474.25 341.75Q496.25 319.5 509.625 286.5Q523 253.5 523 205.75Q523 145.75 499.875 102.625Q476.75 59.5 439.0 32.75Q401.25 6 357.125 -6.625Q313 -19.25 271 -19.25Z"/><path transform="translate(75.92,22.4) scale(0.023000,-0.023000)" d="M126.25 -9.5Q89.75 -9.5 73.875 1.375Q58 12.25 54.375 30.125Q50.75 48 50.75 67.25V614.25Q50.75 657.5 67.875 673.75Q85 690 129.25 690H507.25Q527.25 690 544.25 686.25Q561.25 682.5 572.0 666.625Q582.75 650.75 582.75 613.25Q582.75 576.75 571.875 560.875Q561 545 543.625 541.375Q526.25 537.75 506.25 537.75H202.75V409.25H409.25Q429.25 409.25 444.375 405.875Q459.5 402.5 468.5 388.875Q477.5 375.25 477.5 342.25Q477.5 311 468.5 297.0Q459.5 283 443.5 280.125Q427.5 277.25 407.25 277.25H202.75V142.75H507.25Q527.25 142.75 544.25 139.0Q561.25 135.25 572.0 119.375Q582.75 103.5 582.75 66.25Q582.75 29.75 571.875 13.875Q561 -2 543.625 -5.75Q526.25 -9.5 506.25 -9.5Z"/></g></svg>
