<svg xmlns="http://www.w3.org/2000/svg" viewBox="0 0 34 34" role="img" aria-label="Tamagooshi">
  <style>
    .chip { fill: #18181b; }
    .mark { fill: #ffffff; }
    @media (prefers-color-scheme: dark) {
      .chip { fill: #f0f3f8; }
      .mark { fill: #101216; }
    }
  </style>
  <rect class="chip" width="34" height="34" rx="5"/>
  <path class="mark" transform="translate(8.41,26.14) scale(0.0265,-0.0265)" d="M561.5 690.75Q578.5 690.75 592.75 687.75Q607 684.75 616.25 671.125Q625.5 657.5 625.5 625.25Q625.5 594 616.125 580.0Q606.75 566 592.0 563.125Q577.25 560.25 560.25 560.25H399.25V64.75Q399.25 45.5 395.5 28.5Q391.75 11.5 376.25 1.0Q360.75 -9.5 323.5 -9.5Q287.75 -9.5 271.875 1.375Q256 12.25 252.75 29.375Q249.5 46.5 249.5 65.75V560.25H87Q70.75 560.25 56.0 563.5Q41.25 566.75 31.875 580.375Q22.5 594 22.5 626Q22.5 657.5 31.75 671.125Q41 684.75 56.125 687.75Q71.25 690.75 87.25 690.75Z"/>
</svg>
